<?xml version="1.0" encoding="utf-8"?>
<!-- Generator: Adobe Illustrator 16.0.0, SVG Export Plug-In . SVG Version: 6.00 Build 0)  -->
<!DOCTYPE svg PUBLIC "-//W3C//DTD SVG 1.1//EN" "http://www.w3.org/Graphics/SVG/1.1/DTD/svg11.dtd">
<svg version="1.1" id="Layer_1" xmlns="http://www.w3.org/2000/svg" xmlns:xlink="http://www.w3.org/1999/xlink" x="0px" y="0px"
	 width="115.333px" height="56.667px" viewBox="0 0 115.333 56.667" enable-background="new 0 0 115.333 56.667"
	 xml:space="preserve">
<g>
	<g>
		<path fill-rule="evenodd" clip-rule="evenodd" fill="#2980BA" stroke="#2980BA" stroke-miterlimit="10" d="M111.423,9.833
			c-0.511,5.292-3.229,7.474-7.055,8.292c-5.355,1.146-10.786,1.939-16.173,2.944c-1.556,0.291-3.072,0.789-4.606,1.192
			c0.099,0.661,0.196,1.322,0.295,1.983c7-1.039,14.001-2.078,21.917-3.254c-4.175,11.568-14.96,7.173-21.738,10.893
			c0.032,0.473,0.064,0.947,0.097,1.419c3.938-0.219,7.877-0.438,12.02-0.667c-0.52,5.19-3.776,7.075-7.817,7.302
			c-4.981,0.279-8.587,1.904-11.688,6.129c-2.224,3.029-36.457,2.537-39.103-0.85c-2.789-3.57-5.781-4.969-10.014-5.217
			c-4.225-0.248-7.723-1.771-8.038-7.306c4.04,0.251,7.72,0.48,11.401,0.708c-6.19-5.613-17.532-0.701-21.455-12.136
			c7.717,1.074,14.696,2.047,21.675,3.02c0.134-0.584,0.268-1.168,0.402-1.752c-1.207-0.467-2.377-1.145-3.627-1.363
			c-4.748-0.828-9.545-1.381-14.278-2.279c-4.72-0.896-8.961-2.585-10.137-9.075c9.054,1.406,17.678,2.612,26.244,4.146
			c3.271,0.585,5.349,0.059,7.682-2.681C48.274-1.46,66.642-1.493,77.577,11.242c2.497,2.908,4.76,3.332,8.164,2.711
			C94.043,12.442,102.406,11.256,111.423,9.833z"/>
		<g>
			<path fill-rule="evenodd" clip-rule="evenodd" fill="#2980BA" stroke="#2980BA" stroke-miterlimit="10" d="M29.381,13.954
				c3.404,0.62,5.667,0.197,8.164-2.711C48.48-1.493,66.848-1.46,77.697,11.282c2.334,2.74,4.411,3.266,7.683,2.681
				c8.565-1.533,17.19-2.739,26.243-4.146c-1.176,6.489-5.416,8.179-10.137,9.075c-4.732,0.898-9.531,1.451-14.278,2.279
				c-1.25,0.219-2.42,0.896-3.627,1.363c0.134,0.584,0.269,1.168,0.401,1.752c6.979-0.973,13.958-1.945,21.676-3.02
				c-3.924,11.436-15.266,6.523-21.455,12.136c3.68-0.229,7.361-0.457,11.4-0.708c-0.314,5.534-3.812,7.058-8.037,7.306
				c-4.234,0.248-7.226,1.646-10.015,5.217c-2.646,3.387-36.879,3.879-39.103,0.85c-3.102-4.225-6.707-5.85-11.688-6.129
				c-4.041-0.227-7.298-2.111-7.817-7.302c4.143,0.229,8.081,0.448,12.02,0.667c0.032-0.473,0.064-0.946,0.097-1.419
				c-6.778-3.72-17.563,0.676-21.738-10.893c7.916,1.176,14.917,2.215,21.917,3.254c0.099-0.661,0.196-1.322,0.295-1.983
				c-1.534-0.403-3.051-0.901-4.606-1.192c-5.387-1.005-10.817-1.798-16.173-2.944c-3.825-0.818-6.544-3-7.055-8.292
				C12.716,11.256,21.079,12.442,29.381,13.954z"/>
		</g>
	</g>
	<circle fill-rule="evenodd" clip-rule="evenodd" fill="#212E3A" cx="57.661" cy="28.305" r="27.333"/>
	<circle fill-rule="evenodd" clip-rule="evenodd" fill="#2C3E50" cx="57.462" cy="28.305" r="23"/>
	<g>
		<g>
			<g>
				<path fill-rule="evenodd" clip-rule="evenodd" fill="#ECF0F1" d="M71.384,23.179c0,0.78-0.638,1.417-1.417,1.417H44.956
					c-0.78,0-1.417-0.638-1.417-1.417v-2.991c0-0.78,0.638-1.417,1.417-1.417h25.011c0.779,0,1.417,0.638,1.417,1.417V23.179z"/>
			</g>
			<circle fill-rule="evenodd" clip-rule="evenodd" fill="#24AE5F" cx="68.238" cy="21.684" r="1.375"/>
		</g>
		<g>
			<g>
				<path fill-rule="evenodd" clip-rule="evenodd" fill="#ECF0F1" d="M71.384,31.272c0,0.78-0.639,1.417-1.418,1.417h-25.01
					c-0.78,0-1.417-0.638-1.417-1.417V28.28c0-0.78,0.638-1.417,1.417-1.417h25.01c0.779,0,1.418,0.638,1.418,1.417V31.272z"/>
			</g>
			<circle fill-rule="evenodd" clip-rule="evenodd" fill="#24AE5F" cx="68.234" cy="29.776" r="1.375"/>
		</g>
		<g>
			<g>
				<path fill-rule="evenodd" clip-rule="evenodd" fill="#ECF0F1" d="M71.384,39.269c0,0.779-0.639,1.416-1.418,1.416h-25.01
					c-0.78,0-1.417-0.637-1.417-1.416v-2.992c0-0.78,0.638-1.417,1.417-1.417h25.01c0.779,0,1.418,0.638,1.418,1.417V39.269z"/>
			</g>
			<circle fill-rule="evenodd" clip-rule="evenodd" fill="#24AE5F" cx="68.234" cy="37.773" r="1.375"/>
		</g>
	</g>
</g>
</svg>
