<?xml version="1.0" encoding="utf-8"?>
<!-- Generator: Adobe Illustrator 16.0.0, SVG Export Plug-In . SVG Version: 6.00 Build 0)  -->
<!DOCTYPE svg PUBLIC "-//W3C//DTD SVG 1.1//EN" "http://www.w3.org/Graphics/SVG/1.1/DTD/svg11.dtd">
<svg version="1.1" id="Layer_1" xmlns="http://www.w3.org/2000/svg" xmlns:xlink="http://www.w3.org/1999/xlink" x="0px" y="0px"
	 width="115.333px" height="79.167px" viewBox="0 0 115.333 79.167" enable-background="new 0 0 115.333 79.167"
	 xml:space="preserve">
<g>
	<g>
		<path fill-rule="evenodd" clip-rule="evenodd" fill="#2980BA" stroke="#2980BA" stroke-miterlimit="10" d="M111.423,9.833
			c-0.511,5.292-3.229,7.474-7.055,8.292c-5.355,1.146-10.786,1.939-16.173,2.944c-1.556,0.291-3.072,0.789-4.606,1.192
			c0.099,0.661,0.196,1.322,0.295,1.983c7-1.039,14.001-2.078,21.917-3.254c-4.175,11.568-14.96,7.173-21.738,10.893
			c0.032,0.473,0.064,0.947,0.097,1.419c3.938-0.219,7.877-0.438,12.02-0.667c-0.52,5.19-3.776,7.075-7.817,7.302
			c-4.981,0.279-8.587,1.904-11.688,6.129c-2.224,3.029-36.457,2.537-39.103-0.85c-2.789-3.57-5.781-4.969-10.014-5.217
			c-4.225-0.248-7.723-1.771-8.038-7.306c4.04,0.251,7.72,0.48,11.401,0.708c-6.19-5.613-17.532-0.701-21.455-12.136
			c7.717,1.074,14.696,2.047,21.675,3.02c0.134-0.584,0.268-1.168,0.402-1.752c-1.207-0.467-2.377-1.145-3.627-1.363
			c-4.748-0.828-9.545-1.381-14.278-2.279c-4.72-0.896-8.961-2.585-10.137-9.075c9.054,1.406,17.678,2.612,26.244,4.146
			c3.271,0.585,5.349,0.059,7.682-2.681C48.274-1.46,66.642-1.493,77.577,11.242c2.497,2.908,4.76,3.332,8.164,2.711
			C94.043,12.442,102.406,11.256,111.423,9.833z"/>
		<g>
			<path fill-rule="evenodd" clip-rule="evenodd" fill="#2980BA" stroke="#2980BA" stroke-miterlimit="10" d="M29.381,13.954
				c3.404,0.62,5.667,0.197,8.164-2.711C48.48-1.493,66.848-1.46,77.697,11.282c2.334,2.74,4.411,3.266,7.683,2.681
				c8.565-1.533,17.19-2.739,26.243-4.146c-1.176,6.489-5.416,8.179-10.137,9.075c-4.732,0.898-9.531,1.451-14.278,2.279
				c-1.25,0.219-2.42,0.896-3.627,1.363c0.134,0.584,0.269,1.168,0.401,1.752c6.979-0.973,13.958-1.945,21.676-3.02
				c-3.924,11.436-15.266,6.523-21.455,12.136c3.68-0.229,7.361-0.457,11.4-0.708c-0.314,5.534-3.812,7.058-8.037,7.306
				c-4.234,0.248-7.226,1.646-10.015,5.217c-2.646,3.387-36.879,3.879-39.103,0.85c-3.102-4.225-6.707-5.85-11.688-6.129
				c-4.041-0.227-7.298-2.111-7.817-7.302c4.143,0.229,8.081,0.448,12.02,0.667c0.032-0.473,0.064-0.946,0.097-1.419
				c-6.778-3.72-17.563,0.676-21.738-10.893c7.916,1.176,14.917,2.215,21.917,3.254c0.099-0.661,0.196-1.322,0.295-1.983
				c-1.534-0.403-3.051-0.901-4.606-1.192c-5.387-1.005-10.817-1.798-16.173-2.944c-3.825-0.818-6.544-3-7.055-8.292
				C12.716,11.256,21.079,12.442,29.381,13.954z"/>
		</g>
	</g>
	<circle fill-rule="evenodd" clip-rule="evenodd" fill="#FFFFFF" cx="57.661" cy="28.305" r="27.333"/>
	<circle fill-rule="evenodd" clip-rule="evenodd" fill="#2C3E50" cx="57.462" cy="28.305" r="23"/>
	<g>
		<g>
			<g>
				<path fill-rule="evenodd" clip-rule="evenodd" fill="#ECF0F1" d="M71.384,23.179c0,0.78-0.638,1.417-1.417,1.417H44.956
					c-0.78,0-1.417-0.638-1.417-1.417v-2.991c0-0.78,0.638-1.417,1.417-1.417h25.011c0.779,0,1.417,0.638,1.417,1.417V23.179z"/>
			</g>
			<circle fill-rule="evenodd" clip-rule="evenodd" fill="#24AE5F" cx="68.238" cy="21.684" r="1.375"/>
		</g>
		<g>
			<g>
				<path fill-rule="evenodd" clip-rule="evenodd" fill="#ECF0F1" d="M71.384,31.272c0,0.78-0.639,1.417-1.418,1.417h-25.01
					c-0.78,0-1.417-0.638-1.417-1.417V28.28c0-0.78,0.638-1.417,1.417-1.417h25.01c0.779,0,1.418,0.638,1.418,1.417V31.272z"/>
			</g>
			<circle fill-rule="evenodd" clip-rule="evenodd" fill="#24AE5F" cx="68.234" cy="29.776" r="1.375"/>
		</g>
		<g>
			<g>
				<path fill-rule="evenodd" clip-rule="evenodd" fill="#ECF0F1" d="M71.384,39.269c0,0.779-0.639,1.416-1.418,1.416h-25.01
					c-0.78,0-1.417-0.637-1.417-1.416v-2.992c0-0.78,0.638-1.417,1.417-1.417h25.01c0.779,0,1.418,0.638,1.418,1.417V39.269z"/>
			</g>
			<circle fill-rule="evenodd" clip-rule="evenodd" fill="#24AE5F" cx="68.234" cy="37.773" r="1.375"/>
		</g>
	</g>
</g>
<g>
	<path fill="#2C3E50" d="M22.195,62.55v2.289h-3.504v10.162h-2.889V64.839H12.3V62.55H22.195z"/>
	<path fill="#2C3E50" d="M26.554,75.001h-2.906V62.55h2.906V75.001z"/>
	<path fill="#2C3E50" d="M37.901,62.55v2.289h-3.504v10.162h-2.889V64.839h-3.502V62.55H37.901z"/>
	<path fill="#2C3E50" d="M49.319,75.001H47.08c-0.251,0-0.457-0.059-0.619-0.176c-0.163-0.117-0.275-0.266-0.338-0.449l-0.735-2.17
		h-4.734l-0.734,2.17c-0.057,0.16-0.168,0.303-0.334,0.432c-0.164,0.129-0.367,0.193-0.605,0.193h-2.256l4.818-12.451h2.957
		L49.319,75.001z M41.32,70.24h3.401l-1.146-3.408c-0.073-0.217-0.161-0.471-0.261-0.766c-0.1-0.293-0.197-0.611-0.295-0.951
		c-0.091,0.346-0.185,0.668-0.281,0.965c-0.097,0.295-0.188,0.553-0.273,0.77L41.32,70.24z"/>
	<path fill="#2C3E50" d="M52.165,62.568c0.085,0.01,0.162,0.031,0.23,0.062c0.068,0.033,0.133,0.076,0.195,0.133
		s0.135,0.135,0.215,0.23l5.912,7.479c-0.021-0.24-0.039-0.471-0.051-0.697c-0.012-0.225-0.017-0.438-0.017-0.637V62.55h2.546
		v12.451h-1.504c-0.222,0-0.41-0.035-0.564-0.104c-0.153-0.068-0.301-0.193-0.443-0.375l-5.871-7.418
		c0.018,0.217,0.031,0.428,0.043,0.637c0.012,0.207,0.018,0.402,0.018,0.586v6.674h-2.547V62.55h1.521
		C51.974,62.55,52.079,62.556,52.165,62.568z"/>
	<path fill="#2C3E50" d="M66.41,75.001h-2.906V62.55h2.906V75.001z"/>
	<path fill="#2C3E50" d="M81.005,68.771c0,0.9-0.156,1.738-0.467,2.512c-0.311,0.775-0.748,1.449-1.312,2.021
		c-0.562,0.572-1.242,1.021-2.037,1.346s-1.676,0.488-2.645,0.488s-1.852-0.164-2.648-0.488c-0.799-0.324-1.48-0.773-2.047-1.346
		c-0.568-0.572-1.008-1.246-1.316-2.021c-0.311-0.773-0.467-1.611-0.467-2.512c0-0.898,0.156-1.738,0.467-2.512
		c0.309-0.775,0.748-1.447,1.316-2.018c0.566-0.568,1.248-1.018,2.047-1.342c0.797-0.324,1.68-0.486,2.648-0.486
		s1.85,0.164,2.645,0.492s1.475,0.775,2.037,1.346c0.564,0.57,1.002,1.24,1.312,2.016S81.005,67.876,81.005,68.771z M78.048,68.771
		c0-0.615-0.08-1.168-0.24-1.662c-0.16-0.492-0.389-0.91-0.688-1.252s-0.666-0.604-1.098-0.785
		c-0.434-0.184-0.928-0.275-1.479-0.275c-0.559,0-1.057,0.092-1.492,0.275c-0.436,0.182-0.803,0.443-1.102,0.785
		c-0.301,0.342-0.529,0.76-0.688,1.252c-0.16,0.494-0.24,1.047-0.24,1.662c0,0.621,0.08,1.178,0.24,1.672
		c0.158,0.492,0.387,0.908,0.688,1.25c0.299,0.344,0.666,0.604,1.102,0.783c0.436,0.178,0.934,0.27,1.492,0.27
		c0.551,0,1.045-0.092,1.479-0.27c0.432-0.18,0.799-0.439,1.098-0.783c0.299-0.342,0.527-0.758,0.688-1.25
		C77.968,69.949,78.048,69.392,78.048,68.771z"/>
	<path fill="#2C3E50" d="M87.568,72.718c0.387,0,0.732-0.064,1.037-0.191c0.305-0.129,0.562-0.312,0.773-0.551
		c0.211-0.24,0.371-0.531,0.484-0.877c0.109-0.344,0.164-0.736,0.164-1.174V62.55h2.889v7.375c0,0.764-0.123,1.463-0.371,2.102
		s-0.602,1.188-1.062,1.648c-0.463,0.463-1.023,0.82-1.684,1.078c-0.662,0.256-1.404,0.385-2.23,0.385
		c-0.832,0-1.578-0.129-2.24-0.385c-0.66-0.258-1.221-0.615-1.682-1.078c-0.463-0.461-0.816-1.01-1.061-1.648
		s-0.367-1.338-0.367-2.102V62.55h2.889v7.365c0,0.439,0.055,0.832,0.166,1.176c0.111,0.346,0.271,0.639,0.482,0.881
		s0.469,0.426,0.773,0.555C86.833,72.654,87.179,72.718,87.568,72.718z"/>
	<path fill="#2C3E50" d="M101.736,65.08c-0.086,0.137-0.176,0.24-0.27,0.307c-0.094,0.068-0.215,0.104-0.363,0.104
		c-0.131,0-0.271-0.041-0.424-0.123c-0.15-0.084-0.322-0.176-0.512-0.279c-0.191-0.102-0.41-0.195-0.654-0.277
		s-0.523-0.123-0.838-0.123c-0.541,0-0.943,0.115-1.209,0.346c-0.264,0.23-0.396,0.543-0.396,0.936c0,0.252,0.08,0.459,0.24,0.625
		c0.158,0.164,0.367,0.307,0.627,0.426s0.555,0.23,0.889,0.33c0.332,0.1,0.674,0.211,1.021,0.332
		c0.348,0.123,0.688,0.268,1.021,0.432c0.334,0.166,0.629,0.377,0.887,0.633c0.26,0.256,0.471,0.568,0.629,0.936
		c0.16,0.367,0.24,0.811,0.24,1.33c0,0.574-0.102,1.113-0.299,1.613c-0.199,0.502-0.49,0.939-0.867,1.312
		c-0.379,0.373-0.848,0.666-1.402,0.881c-0.555,0.213-1.186,0.32-1.893,0.32c-0.389,0-0.783-0.041-1.184-0.121
		s-0.789-0.191-1.166-0.338c-0.377-0.145-0.73-0.316-1.061-0.516s-0.617-0.422-0.863-0.668l0.855-1.35
		c0.062-0.102,0.15-0.184,0.264-0.248c0.115-0.062,0.238-0.094,0.369-0.094c0.17,0,0.342,0.055,0.516,0.162
		c0.174,0.109,0.371,0.229,0.59,0.359c0.221,0.131,0.471,0.252,0.756,0.359s0.621,0.162,1.01,0.162c0.523,0,0.93-0.115,1.221-0.346
		s0.438-0.598,0.438-1.1c0-0.289-0.08-0.525-0.24-0.709c-0.16-0.182-0.369-0.332-0.629-0.453c-0.258-0.119-0.553-0.223-0.885-0.314
		c-0.33-0.092-0.668-0.193-1.016-0.303c-0.348-0.111-0.688-0.248-1.018-0.41c-0.33-0.164-0.625-0.377-0.885-0.643
		c-0.258-0.264-0.469-0.594-0.627-0.99c-0.16-0.396-0.24-0.885-0.24-1.467c0-0.465,0.096-0.922,0.283-1.367
		c0.188-0.443,0.465-0.84,0.828-1.188c0.365-0.346,0.812-0.625,1.342-0.832c0.529-0.209,1.137-0.312,1.82-0.312
		c0.381,0,0.754,0.029,1.115,0.09s0.705,0.148,1.029,0.264c0.324,0.117,0.629,0.258,0.91,0.42c0.283,0.162,0.533,0.346,0.756,0.551
		L101.736,65.08z"/>
</g>
</svg>
